<?xml version="1.0" encoding="UTF-8" standalone="no"?>
<!-- Created with Inkscape (http://www.inkscape.org/) -->

<svg
   width="46.331974mm"
   height="23.629326mm"
   viewBox="0 0 46.331974 23.629326"
   version="1.1"
   id="svg1"
   xmlns="http://www.w3.org/2000/svg"
   xmlns:svg="http://www.w3.org/2000/svg">
  <defs
     id="defs1" />
  <g
     id="layer1"
     transform="translate(-1.8340126,-13.185336)">
    <path
       fill-rule="evenodd"
       clip-rule="evenodd"
       d="m 13.607821,13.185337 h 22.784345 c 6.492301,0 11.773821,5.300056 11.773821,11.81462 0,6.514649 -5.28152,11.814705 -11.773821,11.814705 H 13.607821 c -6.4923172,0 -11.7738084,-5.300056 -11.7738084,-11.814705 0,-6.514564 5.2814912,-11.814619 11.7738084,-11.81462 z m 10.460871,18.31438 c 0.285958,0.300847 0.709385,0.285958 1.084484,0.207995 l 0.0037,0.0019 c 0.174109,-0.141572 -0.07335,-0.320972 -0.309716,-0.492322 -0.141712,-0.102731 -0.279485,-0.202366 -0.31984,-0.289533 0.130849,-0.159585 -0.256096,-0.52179 -0.557397,-0.803808 -0.126458,-0.118493 -0.237773,-0.222631 -0.289384,-0.291841 -0.214384,-0.233326 -0.300554,-0.5277 -0.387234,-0.823848 -0.0575,-0.196455 -0.1152,-0.393784 -0.210754,-0.574534 -0.588714,-1.366789 -1.262878,-2.722503 -2.208103,-3.879425 -0.607513,-0.768964 -1.300813,-1.457572 -1.994339,-2.146406 -0.447108,-0.444137 -0.89429,-0.888273 -1.318685,-1.354138 -0.436684,-0.450835 -0.699481,-1.006202 -0.962727,-1.562471 -0.220351,-0.465724 -0.441077,-0.932067 -0.764345,-1.338263 -0.978662,-1.448538 -4.068802,-1.844067 -4.521942,0.202366 0.0019,0.06305 -0.01858,0.103857 -0.07433,0.144951 -0.250665,0.183789 -0.473543,0.391841 -0.661054,0.644391 -0.458725,0.640704 -0.529322,1.727094 0.04267,2.302782 8.19e-4,-0.01126 0.0016,-0.02533 0.0025,-0.03687 0.01914,-0.290715 0.03701,-0.56246 0.26682,-0.770905 0.441969,0.380696 1.112407,0.516218 1.624974,0.232201 0.617937,0.886472 0.814832,1.958056 1.012324,3.0333 0.16451,0.895788 0.329522,1.794024 0.738873,2.589866 0.0084,0.01407 0.01689,0.02815 0.02533,0.04222 0.240532,0.400567 0.485013,0.807524 0.793535,1.157372 0.112076,0.173659 0.342256,0.361247 0.571991,0.548472 0.303085,0.247117 0.605576,0.493503 0.63514,0.706931 0.0013,0.09288 8.95e-4,0.186886 5.21e-4,0.281568 -0.0024,0.560433 -0.0048,1.140766 0.354172,1.601508 0.198679,0.40296 -0.287819,0.807749 -0.679672,0.75765 -0.214835,0.02983 -0.449566,-0.02815 -0.682653,-0.08303 -0.318872,-0.07684 -0.634693,-0.153111 -0.892129,-0.0056 -0.07225,0.07825 -0.17605,0.08106 -0.280301,0.08359 -0.123531,0.0028 -0.247906,0.0056 -0.321405,0.13538 -0.0152,0.03828 -0.05041,0.08162 -0.08714,0.126654 -0.08058,0.09879 -0.167916,0.205744 -0.0633,0.287535 0.0093,-0.0084 0.01858,-0.01407 0.02786,-0.02252 0.158459,-0.121026 0.309564,-0.236423 0.523512,-0.16437 -0.02845,0.158178 0.07366,0.200396 0.175685,0.242896 0.01773,0.0084 0.03566,0.01407 0.0528,0.02252 -0.0011,0.03687 -0.0084,0.07374 -0.01548,0.110612 -0.01717,0.08781 -0.03394,0.173941 0.03411,0.249651 0.03231,-0.03293 0.06091,-0.0698 0.0895,-0.106672 0.07008,-0.09063 0.140446,-0.181538 0.267045,-0.214469 0.278443,0.371747 0.558882,0.217284 0.910747,0.02252 0.396916,-0.218409 0.884684,-0.487171 1.562867,-0.107235 -0.25998,-0.01407 -0.492161,0.0197 -0.666714,0.23389 -0.04267,0.04841 -0.07982,0.103857 -0.0037,0.167184 0.40131,-0.260064 0.568267,-0.166621 0.725395,-0.07853 0.113426,0.06333 0.221702,0.124122 0.409278,0.047 0.04439,-0.02252 0.08869,-0.047 0.133072,-0.07093 0.301301,-0.162682 0.60677,-0.327361 0.964441,-0.27076 -0.26713,0.07712 -0.362214,0.246273 -0.46595,0.431245 -0.05131,0.09147 -0.104701,0.186605 -0.182158,0.276389 -0.04081,0.04081 -0.05941,0.08922 -0.01295,0.157897 0.559406,-0.04644 0.770745,-0.188294 1.056332,-0.380021 0.136281,-0.09147 0.28946,-0.194204 0.505418,-0.303381 0.238758,-0.146919 0.477492,-0.05291 0.708789,0.03828 0.25103,0.09879 0.493278,0.194204 0.717429,-0.02533 0.07081,-0.0667 0.15967,-0.06755 0.248047,-0.06839 0.03217,-2.82e-4 0.06434,-5.92e-4 0.09555,-0.0028 -0.06977,-0.373773 -0.463343,-0.369382 -0.862793,-0.364907 -0.462076,0.0056 -0.932121,0.01126 -0.918118,-0.569243 0.429309,-0.293164 0.433255,-0.802091 0.436979,-1.28307 9.68e-4,-0.11596 0.0018,-0.230512 0.0087,-0.340026 0.315745,0.176191 0.649737,0.313738 0.981716,0.450441 0.312246,0.128625 0.622703,0.256405 0.914321,0.414949 0.304577,0.490295 0.779983,1.14026 1.41326,1.097591 0.01661,-0.0501 0.03158,-0.09288 0.05013,-0.142979 0.03651,0.0056 0.07506,0.01689 0.114243,0.02533 0.166227,0.04222 0.344192,0.08725 0.429906,-0.109486 z m 12.411792,-5.571436 c 0.36661,0.36578 0.863983,0.571326 1.382506,0.571326 0.518525,0 1.015898,-0.205462 1.382505,-0.571326 0.366683,-0.365779 0.572736,-0.8619 0.572736,-1.379159 0,-0.517343 -0.206053,-1.013436 -0.572736,-1.379215 -0.366607,-0.365808 -0.86398,-0.571326 -1.382505,-0.571326 -0.24284,0 -0.481066,0.04503 -0.703354,0.130595 l -1.120674,-1.635846 -0.781024,0.535131 1.126483,1.644318 c -0.306438,0.353282 -0.476673,0.80606 -0.476673,1.276315 0,0.517259 0.206053,1.01338 0.572736,1.379159 z m -3.508576,-5.297523 c 0.274334,0.135661 0.576758,0.204899 0.882897,0.202649 0.417767,-0.0028 0.82347,-0.139883 1.157684,-0.389759 0.33429,-0.249933 0.579438,-0.600176 0.699707,-0.999251 0.120266,-0.399104 0.109176,-0.826128 -0.03158,-1.218504 -0.140671,-0.392377 -0.403691,-0.729476 -0.750416,-0.961902 -0.254154,-0.17028 -0.54481,-0.278641 -0.848641,-0.316553 -0.303758,-0.03771 -0.61228,-0.0028 -0.900474,0.09907 -0.288266,0.103013 -0.548308,0.271886 -0.75913,0.493335 -0.21081,0.221506 -0.366607,0.489254 -0.454702,0.781742 -0.0881,0.292517 -0.106193,0.601555 -0.05266,0.90229 0.05348,0.300706 0.177007,0.584695 0.360727,0.829082 0.183649,0.244304 0.422233,0.442307 0.696576,0.577856 z m 0,11.326267 c 0.274334,0.13538 0.576758,0.204901 0.882897,0.202649 0.417767,-0.0028 0.82347,-0.139883 1.157684,-0.389759 0.33429,-0.249932 0.579438,-0.600232 0.699707,-0.999307 0.120266,-0.399076 0.109176,-0.826156 -0.03158,-1.218533 -0.140671,-0.392348 -0.403691,-0.729391 -0.750416,-0.961818 -0.254154,-0.170279 -0.54481,-0.278922 -0.848641,-0.316581 -0.303758,-0.03772 -0.61228,-0.0028 -0.900474,0.09907 -0.288266,0.103012 -0.548308,0.271885 -0.75913,0.493362 -0.21081,0.221506 -0.366607,0.489198 -0.454702,0.781686 -0.0881,0.292517 -0.106193,0.601555 -0.05266,0.902261 0.05348,0.300792 0.177007,0.584724 0.360727,0.829141 0.183649,0.244303 0.422233,0.442335 0.696576,0.577883 z m 1.797517,-6.922955 v -0.969726 h -2.992512 c -0.07529,-0.294093 -0.218859,-0.566401 -0.419182,-0.795168 l 1.125812,-1.66796 -0.818778,-0.543011 -1.125813,1.667848 c -0.206363,-0.07459 -0.423875,-0.113989 -0.643334,-0.116242 -0.517106,0 -1.012918,0.204336 -1.378556,0.568033 -0.365566,0.363696 -0.571025,0.856975 -0.571025,1.37142 0,0.514358 0.205462,1.007638 0.571025,1.371391 0.365638,0.363724 0.86145,0.568061 1.378556,0.568061 0.219451,-0.0025 0.436982,-0.04194 0.643334,-0.116522 l 1.125813,1.66796 0.809099,-0.543096 -1.116133,-1.667876 c 0.200311,-0.228823 0.343896,-0.501159 0.419182,-0.795168 z"
       fill="currentColor"
       id="path1"
       style="stroke-width:0.744683" />
  </g>
</svg>
