<?xml version="1.0" encoding="UTF-8" standalone="no"?>
<svg
   width="80.302902"
   height="40.851299"
   viewBox="0 0 80.302902 40.851299"
   fill="none"
   version="1.1"
   id="svg12"
   sodipodi:docname="langgraph_simbol copia.svg"
   inkscape:export-filename="../../../Downloads/langgraph_simbol_icon.pdf"
   inkscape:export-xdpi="96"
   inkscape:export-ydpi="96"
   inkscape:version="1.3.2 (091e20e, 2023-11-25)"
   xmlns:inkscape="http://www.inkscape.org/namespaces/inkscape"
   xmlns:sodipodi="http://sodipodi.sourceforge.net/DTD/sodipodi-0.dtd"
   xmlns="http://www.w3.org/2000/svg"
   xmlns:svg="http://www.w3.org/2000/svg">
  <defs
     id="defs12" />
  <sodipodi:namedview
     id="namedview12"
     pagecolor="#ffffff"
     bordercolor="#000000"
     borderopacity="0.25"
     inkscape:showpageshadow="2"
     inkscape:pageopacity="0.0"
     inkscape:pagecheckerboard="0"
     inkscape:deskcolor="#d1d1d1"
     inkscape:zoom="5.9819361"
     inkscape:cx="37.863995"
     inkscape:cy="14.209446"
     inkscape:window-width="1680"
     inkscape:window-height="997"
     inkscape:window-x="0"
     inkscape:window-y="25"
     inkscape:window-maximized="0"
     inkscape:current-layer="layer2" />
  <g
     inkscape:groupmode="layer"
     id="layer2"
     inkscape:label="Icon">
    <path
       d="m 61.5139,11.1569 c -1.0612,0 -2.059,0.4111 -2.8059,1.1579 l -3.0181,3.01 c -0.8142,0.812 -1.2325,1.9395 -1.1468,3.0954 0.0061,0.0631 0.0122,0.1262 0.0184,0.1913 0.1081,0.8873 0.4979,1.6871 1.1284,2.3139 0.4347,0.4335 0.9142,0.7083 1.4958,0.8996 0.0306,0.175 0.0469,0.352 0.0469,0.5291 0,0.7978 -0.3101,1.5467 -0.8734,2.1084 l -0.1857,0.1852 c -1.008,-0.344 -1.8488,-0.8466 -2.6079,-1.6037 -1.008,-1.0054 -1.6753,-2.2753 -1.9263,-3.6693 l -0.0347,-0.1934 -0.1531,0.1242 c -0.104,0.0834 -0.202,0.173 -0.2938,0.2645 l -3.0181,3.01 c -1.5468,1.5426 -1.5468,4.056 0,5.5986 0.7734,0.7713 1.7896,1.158 2.8079,1.158 1.0183,0 2.0325,-0.3867 2.8059,-1.158 l 3.0181,-3.0099 c 1.5468,-1.5427 1.5468,-4.054 0,-5.5987 -0.4123,-0.411 -0.904,-0.7204 -1.4611,-0.9198 -0.0306,-0.1812 -0.047,-0.3623 -0.047,-0.5393 0,-0.867 0.3429,-1.6892 0.9714,-2.316 1.0101,0.3439 1.9059,0.9016 2.663,1.6566 1.006,1.0033 1.6713,2.2712 1.9263,3.6693 l 0.0347,0.1933 0.1531,-0.1241 c 0.1041,-0.0834 0.202,-0.173 0.2959,-0.2666 l 3.0181,-3.0099 c 1.5468,-1.5427 1.5488,-4.056 0,-5.5987 C 63.577,11.568 62.5811,11.1569 61.518,11.1569 Z"
       fill="CurrentColor"
       id="path1"
       style="fill:#000000;fill-opacity:1" />
    <path
       d="M 59.8966,0.148865 H 20.4063 C 9.15426,0.148865 0,9.27841 0,20.5001 0,31.7217 9.15426,40.8513 20.4063,40.8513 h 39.4903 c 11.252,0 20.4063,-9.1296 20.4063,-20.3512 0,-11.22169 -9.1543,-20.351235 -20.4063,-20.351235 z M 40.4188,32.0555 c -0.651,0.1343 -1.3836,0.1587 -1.8815,-0.3602 -0.1837,0.4212 -0.6122,0.1994 -0.9428,0.1445 -0.0306,0.0854 -0.0571,0.1607 -0.0857,0.2462 -1.0999,0.0733 -1.9243,-1.046 -2.4487,-1.8906 -1.0408,-0.5617 -2.2223,-0.9036 -3.2855,-1.4918 -0.0612,0.9688 0.1511,2.1695 -0.7734,2.7943 -0.0469,1.8621 2.8243,0.2198 3.0875,1.6077 -0.204,0.0224 -0.4305,-0.0326 -0.5938,0.1241 -0.7489,0.7266 -1.608,-0.5494 -2.4712,-0.0223 -1.1591,0.582 -1.2754,1.0582 -2.71,1.1783 -0.0795,-0.1201 -0.0469,-0.1995 0.0204,-0.2727 0.4041,-0.4681 0.4327,-1.0196 1.1224,-1.2191 -0.7101,-0.1119 -1.304,0.2789 -1.9019,0.5882 -0.7775,0.3175 -0.7713,-0.7164 -1.9671,0.0549 -0.1327,-0.1078 -0.0694,-0.2055 0.0061,-0.2889 0.304,-0.3704 0.704,-0.4254 1.155,-0.405 -2.2182,-1.2333 -3.263,1.508 -4.2874,0.1445 -0.3081,0.0814 -0.4244,0.3581 -0.6183,0.5535 -0.1673,-0.1831 -0.0408,-0.405 -0.0326,-0.6207 -0.2,-0.0936 -0.4531,-0.1384 -0.3939,-0.4579 -0.3918,-0.1323 -0.6652,0.0997 -0.957,0.3195 -0.2633,-0.2035 0.1775,-0.5006 0.2591,-0.7123 0.2347,-0.407 0.7693,-0.0834 1.0407,-0.3765 0.7714,-0.4375 1.8468,0.2727 2.7284,0.1527 0.6795,0.0854 1.5202,-0.6106 1.1794,-1.3046 -0.7264,-0.9259 -0.5979,-2.1368 -0.6142,-3.2439 -0.0898,-0.6452 -1.6427,-1.4674 -2.0916,-2.1634 -0.5551,-0.6268 -0.9877,-1.3533 -1.4203,-2.0676 -1.5611,-3.0141 -1.0693,-6.8869 -3.0365,-9.6852 -0.8897,0.4905 -2.0488,0.2585 -2.816,-0.3989 -0.4143,0.3765 -0.4327,0.869 -0.4653,1.3921 -0.9938,-0.9911 -0.8693,-2.8635 -0.0755,-3.9665 0.3245,-0.43551 0.7122,-0.79369 1.1448,-1.10914 0.0979,-0.07122 0.1306,-0.14042 0.1285,-0.25032 0.7857,-3.52482 6.1444,-2.84509 7.8381,-0.348 1.2285,1.53656 1.5999,3.56956 2.9936,4.99626 1.8753,2.0473 4.0119,3.8504 5.7423,6.03 1.6366,1.9924 2.8059,4.3287 3.8262,6.6834 0.4163,0.7814 0.4204,1.74 1.0367,2.4075 0.304,0.403 1.7896,1.4999 1.4672,1.8886 0.1857,0.4029 1.5733,0.9585 1.0917,1.3493 z m 26.0261,-12.0235 -3.018,3.0099 c -0.8041,0.8019 -1.7978,1.4002 -2.8753,1.7278 l -0.0551,0.0163 -0.0204,0.0529 c -0.351,0.924 -0.8836,1.7482 -1.5856,2.4463 l -3.0181,3.0099 c -1.3162,1.3127 -3.067,2.0351 -4.9322,2.0351 -1.8651,0 -3.616,-0.7224 -4.9322,-2.0351 -2.7201,-2.7128 -2.7201,-7.125 0,-9.8378 l 3.0181,-3.0099 c 0.8081,-0.8059 1.7754,-1.3859 2.8712,-1.7217 l 0.0551,-0.0163 0.0204,-0.0529 c 0.351,-0.924 0.8856,-1.7502 1.5897,-2.4544 l 3.018,-3.0099 c 1.3162,-1.31267 3.0671,-2.03514 4.9322,-2.03514 1.8652,0 3.616,0.72247 4.9322,2.03514 1.3163,1.3126 2.0407,3.0588 2.0407,4.9189 0,1.8601 -0.7244,3.6082 -2.0407,4.9189 z"
       fill="CurrentColor"
       id="path2"
       style="fill:#000000;fill-opacity:1" />
    <path
       d="m 28.1422,28.4126 c -0.2653,1.0298 -0.351,2.782 -1.6937,2.8329 -0.1102,0.5943 0.4122,0.8181 0.8897,0.6268 0.4714,-0.2157 0.6958,0.171 0.855,0.5556 0.7285,0.1058 1.806,-0.2422 1.8468,-1.103 -1.0877,-0.6248 -1.4244,-1.8133 -1.8958,-2.9143 z"
       fill="CurrentColor"
       id="path3"
       style="fill:#000000;fill-opacity:1" />
  </g>
</svg>
